{
  "accessors": [
    {
      "bufferView": 2,
      "componentType": 5126,
      "count": 875,
      "max": [
        19.535381317138672,
        19.535385131835938,
        -18.074752807617188
      ],
      "min": [
        -19.535381317138672,
        -19.535381317138672,
        -27.490083694458008
      ],
      "type": "VEC3"
    },
    {
      "bufferView": 2,
      "byteOffset": 10500,
      "componentType": 5126,
      "count": 875,
      "max": [
        0.93832749128341675,
        0.93832701444625854,
        1
      ],
      "min": [
        -0.93832725286483765,
        -0.93832731246948242,
        -1
      ],
      "type": "VEC3"
    },
    {
      "bufferView": 3,
      "componentType": 5126,
      "count": 875,
      "max": [
        1,
        1,
        0.95546489953994751,
        1
      ],
      "min": [
        -0.94867974519729614,
        -1,
        -0.95546472072601318,
        1
      ],
      "type": "VEC4"
    },
    {
      "bufferView": 1,
      "componentType": 5126,
      "count": 875,
      "max": [
        0.96780520677566528,
        0.99962353706359863
      ],
      "min": [
        0.00023978948593139648,
        0.00031886817305348814
      ],
      "type": "VEC2"
    },
    {
      "bufferView": 1,
      "byteOffset": 7000,
      "componentType": 5126,
      "count": 875,
      "max": [
        0.96780520677566528,
        0.99962353706359863
      ],
      "min": [
        0.00023978948593139648,
        0.00031886817305348814
      ],
      "type": "VEC2"
    },
    {
      "bufferView": 1,
      "byteOffset": 14000,
      "componentType": 5126,
      "count": 875,
      "max": [
        0.96780520677566528,
        0.99962353706359863
      ],
      "min": [
        0.00023978948593139648,
        0.00031886817305348814
      ],
      "type": "VEC2"
    },
    {
      "bufferView": 1,
      "byteOffset": 21000,
      "componentType": 5126,
      "count": 875,
      "max": [
        0.96780520677566528,
        0.99962353706359863
      ],
      "min": [
        0.00023978948593139648,
        0.00031886817305348814
      ],
      "type": "VEC2"
    },
    {
      "bufferView": 1,
      "byteOffset": 28000,
      "componentType": 5126,
      "count": 875,
      "max": [
        0.96780520677566528,
        0.99962353706359863
      ],
      "min": [
        0.00023978948593139648,
        0.00031886817305348814
      ],
      "type": "VEC2"
    },
    {
      "bufferView": 1,
      "byteOffset": 35000,
      "componentType": 5126,
      "count": 875,
      "max": [
        0.96780520677566528,
        0.99962353706359863
      ],
      "min": [
        0.00023978948593139648,
        0.00031886817305348814
      ],
      "type": "VEC2"
    },
    {
      "bufferView": 1,
      "byteOffset": 42000,
      "componentType": 5126,
      "count": 875,
      "max": [
        0.96780520677566528,
        0.99962353706359863
      ],
      "min": [
        0.00023978948593139648,
        0.00031886817305348814
      ],
      "type": "VEC2"
    },
    {
      "bufferView": 1,
      "byteOffset": 49000,
      "componentType": 5126,
      "count": 875,
      "max": [
        0.96780520677566528,
        0.99962353706359863
      ],
      "min": [
        0.00023978948593139648,
        0.00031886817305348814
      ],
      "type": "VEC2"
    },
    {
      "bufferView": 1,
      "byteOffset": 56000,
      "componentType": 5126,
      "count": 875,
      "max": [
        0.96780520677566528,
        0.99962353706359863
      ],
      "min": [
        0.00023978948593139648,
        0.00031886817305348814
      ],
      "type": "VEC2"
    },
    {
      "bufferView": 1,
      "byteOffset": 63000,
      "componentType": 5126,
      "count": 875,
      "max": [
        0.96780520677566528,
        0.99962353706359863
      ],
      "min": [
        0.00023978948593139648,
        0.00031886817305348814
      ],
      "type": "VEC2"
    },
    {
      "bufferView": 0,
      "componentType": 5125,
      "count": 3264,
      "max": [
        874
      ],
      "min": [
        0
      ],
      "type": "SCALAR"
    }
  ],
  "asset": {
    "extras": {
      "author": "Sapizon (https://sketchfab.com/sapizon)",
      "license": "CC-BY-4.0 (http://creativecommons.org/licenses/by/4.0/)",
      "source": "https://sketchfab.com/3d-models/fancy-bowl-d07f08a2fb61433889db951777f3aa54",
      "title": "Fancy Bowl"
    },
    "generator": "Sketchfab-5.38.0",
    "version": "2.0"
  },
  "bufferViews": [
    {
      "buffer": 0,
      "byteLength": 13056,
      "byteOffset": 0,
      "name": "floatBufferViews",
      "target": 34963
    },
    {
      "buffer": 0,
      "byteLength": 70000,
      "byteOffset": 13056,
      "byteStride": 8,
      "name": "floatBufferViews",
      "target": 34962
    },
    {
      "buffer": 0,
      "byteLength": 21000,
      "byteOffset": 83056,
      "byteStride": 12,
      "name": "floatBufferViews",
      "target": 34962
    },
    {
      "buffer": 0,
      "byteLength": 14000,
      "byteOffset": 104056,
      "byteStride": 16,
      "name": "floatBufferViews",
      "target": 34962
    }
  ],
  "buffers": [
    {
      "byteLength": 118056,
      "uri": "scene.bin"
    }
  ],
  "images": [
    {
      "uri": "textures/Stockholm_Bowl1_metallicRoughness.png"
    },
    {
      "uri": "textures/Stockholm_Bowl1_baseColor.png"
    },
    {
      "uri": "textures/Stockholm_Bowl1_normal.png"
    }
  ],
  "materials": [
    {
      "doubleSided": true,
      "name": "Stockholm_Bowl1",
      "normalTexture": {
        "index": 2,
        "scale": 1,
        "texCoord": 0
      },
      "pbrMetallicRoughness": {
        "baseColorFactor": [
          1,
          1,
          1,
          1
        ],
        "baseColorTexture": {
          "index": 1,
          "texCoord": 0
        },
        "metallicFactor": 1,
        "metallicRoughnessTexture": {
          "index": 0,
          "texCoord": 0
        },
        "roughnessFactor": 1
      }
    }
  ],
  "meshes": [
    {
      "name": "Sphere001_INSTALOD_INSTALOD_Stockholm_Bowl1_0",
      "primitives": [
        {
          "attributes": {
            "NORMAL": 1,
            "POSITION": 0,
            "TANGENT": 2,
            "TEXCOORD_0": 3,
            "TEXCOORD_1": 4,
            "TEXCOORD_2": 5,
            "TEXCOORD_3": 6,
            "TEXCOORD_4": 7,
            "TEXCOORD_5": 8,
            "TEXCOORD_6": 9,
            "TEXCOORD_7": 10,
            "TEXCOORD_8": 11,
            "TEXCOORD_9": 12
          },
          "indices": 13,
          "material": 0,
          "mode": 4
        }
      ]
    }
  ],
  "nodes": [
    {
      "children": [
        1
      ],
      "name": "RootNode (gltf orientation matrix)",
      "rotation": [
        -0.70710678118654746,
        -0,
        -0,
        0.70710678118654757
      ]
    },
    {
      "children": [
        2
      ],
      "matrix": [
        1,
        0,
        0,
        0,
        0,
        -0.99998897314071655,
        -0.0047021107748150826,
        0,
        0,
        0.0047021107748150826,
        -0.99998897314071655,
        0,
        0,
        56.740184783935547,
        -20.181732177734375,
        1
      ],
      "name": "RootNode (model correction matrix)"
    },
    {
      "children": [
        3
      ],
      "matrix": [
        1,
        0,
        0,
        0,
        0,
        -1,
        0,
        0,
        0,
        0,
        -1,
        0,
        0,
        0,
        0,
        1
      ],
      "name": "d11ecd6330824ddf82333d17d00e2cdf.fbx"
    },
    {
      "children": [
        4
      ],
      "name": "RootNode"
    },
    {
      "children": [
        5
      ],
      "matrix": [
        1.096750020980835,
        0,
        0,
        0,
        0,
        1.096750020980835,
        0,
        0,
        0,
        0,
        1.096750020980835,
        0,
        2.6445865631103516,
        -28.346254348754883,
        10.157560348510742,
        1
      ],
      "name": "Sphere001_INSTALOD_INSTALOD"
    },
    {
      "children": [
        6
      ],
      "matrix": [
        1,
        0,
        -0,
        0,
        0,
        1,
        0,
        0,
        0,
        0,
        1,
        0,
        0,
        -1.7390915445503197e-06,
        22.782417297363281,
        1
      ],
      "name": ""
    },
    {
      "mesh": 0,
      "name": "Sphere001_INSTALOD_INSTALOD_Stockholm_Bowl1_0"
    }
  ],
  "samplers": [
    {
      "magFilter": 9729,
      "minFilter": 9987,
      "wrapS": 10497,
      "wrapT": 10497
    }
  ],
  "scene": 0,
  "scenes": [
    {
      "name": "OSG_Scene",
      "nodes": [
        0
      ]
    }
  ],
  "textures": [
    {
      "sampler": 0,
      "source": 0
    },
    {
      "sampler": 0,
      "source": 1
    },
    {
      "sampler": 0,
      "source": 2
    }
  ]
}

